<svg width="800" height="600" xmlns="http://www.w3.org/2000/svg">
  <rect width="800" height="600" fill="#0f172a"/>
  <text x="400" y="50" text-anchor="middle" font-size="30" fill="white">Unsupervised Learning</text>

  <rect x="100" y="100" width="150" height="100" fill="#10b981" rx="10" ry="10"/>
  <text x="175" y="140" text-anchor="middle" font-size="16" fill="white">Input Data</text>
  <text x="175" y="165" text-anchor="middle" font-size="12" fill="white">(Unlabeled)</text>

  <path d="M250,150 L350,150" stroke="white" stroke-width="3" />
  <path d="M340,140 L350,150 L340,160" stroke="white" stroke-width="3" fill="none" />

  <rect x="350" y="100" width="150" height="100" fill="#6366f1" rx="10" ry="10"/>
  <text x="425" y="140" text-anchor="middle" font-size="16" fill="white">Algorithm</text>
  <text x="425" y="165" text-anchor="middle" font-size="12" fill="white">(Clustering, etc.)</text>

  <path d="M500,150 L600,150" stroke="white" stroke-width="3" />
  <path d="M590,140 L600,150 L590,160" stroke="white" stroke-width="3" fill="none" />

  <rect x="600" y="100" width="100" height="100" fill="#f59e0b" rx="10" ry="10"/>
  <text x="650" y="140" text-anchor="middle" font-size="16" fill="white">Output</text>
  <text x="650" y="165" text-anchor="middle" font-size="12" fill="white">(Clusters)</text>

    <text x="400" y="250" text-anchor="middle" font-size="20" fill="white">Key Applications in Calculus</text>

    <circle cx="200" cy="350" r="30" fill="#ef4444"/>
    <text x="200" y="355" text-anchor="middle" font-size="12" fill="white">Data</text>

    <circle cx="400" cy="350" r="30" fill="#ef4444"/>
    <text x="400" y="355" text-anchor="middle" font-size="12" fill="white">Data</text>

    <circle cx="600" cy="350" r="30" fill="#ef4444"/>
    <text x="600" y="355" text-anchor="middle" font-size="12" fill="white">Data</text>


    <path d="M230,350 C 300,400 500,400 570,350" stroke="#6366f1" stroke-width="3" fill="none" />

    <text x="400" y="450" text-anchor="middle" font-size="16" fill="white">Clustering to Identify Patterns</text>
    <text x="400" y="475" text-anchor="middle" font-size="12" fill="white">(e.g., function behavior in certain intervals)</text>

   <text x="400" y="525" text-anchor="middle" font-size="16" fill="white">Example:</text>
   <text x="400" y="550" text-anchor="middle" font-size="12" fill="white">Analyzing derivative trends to segment a function's domain.</text>

</svg>