<svg width="800" height="600" viewBox="0 0 800 600" xmlns="http://www.w3.org/2000/svg">
  <rect width="800" height="600" fill="#0f172a"/>
  <text x="400" y="50" font-size="30" fill="white" text-anchor="middle">Unsupervised Learning</text>
  <text x="400" y="80" font-size="16" fill="#6366f1" text-anchor="middle">Discovering Hidden Patterns in Data</text>

  <circle cx="200" cy="200" r="30" fill="#10b981"/>
  <circle cx="220" cy="230" r="30" fill="#10b981"/>
  <circle cx="180" cy="230" r="30" fill="#10b981"/>
  <text x="200" y="280" font-size="14" fill="white" text-anchor="middle">Cluster 1</text>

  <circle cx="600" cy="200" r="30" fill="#f59e0b"/>
  <circle cx="620" cy="230" r="30" fill="#f59e0b"/>
  <circle cx="580" cy="230" r="30" fill="#f59e0b"/>
  <text x="600" y="280" font-size="14" fill="white" text-anchor="middle">Cluster 2</text>

  <circle cx="200" cy="400" r="30" fill="#ef4444"/>
  <circle cx="220" cy="430" r="30" fill="#ef4444"/>
  <circle cx="180" cy="430" r="30" fill="#ef4444"/>
  <text x="200" y="480" font-size="14" fill="white" text-anchor="middle">Cluster 3</text>

  <path d="M250,200 L550,200" stroke="#6366f1" stroke-width="2" stroke-dasharray="5,5"/>
  <path d="M250,400 L550,400" stroke="#6366f1" stroke-width="2" stroke-dasharray="5,5"/>
  <path d="M600,260 L600,340" stroke="#6366f1" stroke-width="2" stroke-dasharray="5,5"/>

  <text x="400" y="330" font-size="18" fill="white" text-anchor="middle">Clustering: Grouping Similar Data</text>

  <rect x="40" y="520" width="150" height="40" fill="#6366f1"/>
  <text x="115" y="545" font-size="16" fill="white" text-anchor="middle">Applications</text>
  <text x="400" y="540" font-size="14" fill="white" text-anchor="middle">Anomaly Detection | Dimensionality Reduction | Recommendation Systems</text>

</svg>